<svg xmlns="http://www.w3.org/2000/svg" width="24.691" height="25.621" viewBox="0 0 24.691 25.621">
  <g id="그룹_11" data-name="그룹 11" transform="translate(0.018 0.018)">
    <path id="패스_31" data-name="패스 31" d="M16.331,0A8.567,8.567,0,0,0,7.866,8.648a8.758,8.758,0,0,0,.548,3.068L.321,19.985a.637.637,0,0,0-.181.446v4.525a.624.624,0,0,0,.617.63h3.65a.61.61,0,0,0,.436-.184l1.23-1.255a.637.637,0,0,0,.181-.446V22.158H7.762a.624.624,0,0,0,.617-.63V20.91h.6a.624.624,0,0,0,.617-.63V18.924h1.327a.61.61,0,0,0,.436-.185l1.963-2a8.25,8.25,0,0,0,3,.561A8.567,8.567,0,0,0,24.8,8.647,8.567,8.567,0,0,0,16.331,0Zm0,16.035a7.047,7.047,0,0,1-2.9-.619.607.607,0,0,0-.679.126l-.006.005-2.072,2.116H8.983a.624.624,0,0,0-.617.63v1.356h-.6a.624.624,0,0,0-.617.63V20.9H5.637a.624.624,0,0,0-.617.63v1.912l-.868.886H1.374v-.891l7.54-7.7a.576.576,0,0,0,0-.8.547.547,0,0,0-.785,0l-6.755,6.9V20.692l8.2-8.381,0-.005a.64.64,0,0,0,.124-.693A7.472,7.472,0,0,1,9.1,8.648,7.319,7.319,0,0,1,16.331,1.26a7.319,7.319,0,0,1,7.231,7.387A7.319,7.319,0,0,1,16.331,16.035Z" transform="translate(-0.14)" stroke="#707070" stroke-width="0.035"/>
  </g>
</svg>
